G04*
G04 #@! TF.GenerationSoftware,Altium Limited,Altium Designer,21.7.2 (23)*
G04*
G04 Layer_Color=8388736*
%FSLAX44Y44*%
%MOMM*%
G71*
G04*
G04 #@! TF.SameCoordinates,4DA13975-460D-43A1-ABA8-CDB05979C8EE*
G04*
G04*
G04 #@! TF.FilePolarity,Negative*
G04*
G01*
G75*
%ADD13C,1.0000*%
%ADD14C,0.6096*%
%ADD15R,1.1000X1.6000*%
%ADD16R,0.8000X1.6000*%
%ADD17R,1.6000X0.8000*%
%ADD18C,1.1000*%
%ADD19R,0.3000X0.3000*%
%ADD20C,0.3000*%
G04:AMPARAMS|DCode=21|XSize=0.65mm|YSize=0.65mm|CornerRadius=0.1188mm|HoleSize=0mm|Usage=FLASHONLY|Rotation=90.000|XOffset=0mm|YOffset=0mm|HoleType=Round|Shape=RoundedRectangle|*
%AMROUNDEDRECTD21*
21,1,0.6500,0.4125,0,0,90.0*
21,1,0.4125,0.6500,0,0,90.0*
1,1,0.2375,0.2063,0.2063*
1,1,0.2375,0.2063,-0.2063*
1,1,0.2375,-0.2063,-0.2063*
1,1,0.2375,-0.2063,0.2063*
%
%ADD21ROUNDEDRECTD21*%
G04:AMPARAMS|DCode=22|XSize=1.55mm|YSize=1.35mm|CornerRadius=0.2063mm|HoleSize=0mm|Usage=FLASHONLY|Rotation=90.000|XOffset=0mm|YOffset=0mm|HoleType=Round|Shape=RoundedRectangle|*
%AMROUNDEDRECTD22*
21,1,1.5500,0.9375,0,0,90.0*
21,1,1.1375,1.3500,0,0,90.0*
1,1,0.4125,0.4688,0.5688*
1,1,0.4125,0.4688,-0.5688*
1,1,0.4125,-0.4688,-0.5688*
1,1,0.4125,-0.4688,0.5688*
%
%ADD22ROUNDEDRECTD22*%
%ADD23R,1.6240X1.6240*%
%ADD24C,1.6240*%
%ADD25C,0.7000*%
D13*
X686000Y-400000D02*
Y-266000D01*
Y-400000D02*
X1085800D01*
X685800Y267000D02*
Y400000D01*
X0Y-266000D02*
X686000D01*
X1085800Y-400000D02*
X1085800Y400000D01*
X685800D02*
X1085800D01*
X0Y267000D02*
X685800D01*
X0Y-266000D02*
Y267000D01*
D14*
X583895Y-114300D02*
G03*
X583895Y-114300I-2794J0D01*
G01*
X583336D02*
G03*
X583336Y-114300I-2794J0D01*
G01*
D15*
X1076000Y-44000D02*
D03*
Y44000D02*
D03*
D16*
X1064000Y-44000D02*
D03*
X1054000D02*
D03*
X1044000D02*
D03*
X1034000D02*
D03*
X1024000D02*
D03*
X1014000D02*
D03*
X1004000D02*
D03*
X994000D02*
D03*
X984000D02*
D03*
X974000D02*
D03*
X964000D02*
D03*
X954000D02*
D03*
X1064000Y44000D02*
D03*
X1054000D02*
D03*
X1044000D02*
D03*
X1034000D02*
D03*
X1024000D02*
D03*
X1014000D02*
D03*
X1004000D02*
D03*
X994000D02*
D03*
X984000D02*
D03*
X974000D02*
D03*
X964000D02*
D03*
X954000D02*
D03*
D17*
X950000Y20000D02*
D03*
Y10000D02*
D03*
Y0D02*
D03*
Y-10000D02*
D03*
Y-20000D02*
D03*
D18*
X215900Y165100D02*
D03*
X190500D02*
D03*
X368300D02*
D03*
X342900D02*
D03*
X317500D02*
D03*
X292100D02*
D03*
X609600D02*
D03*
X508000Y-177800D02*
D03*
X558800Y165100D02*
D03*
X533400Y-177800D02*
D03*
X558800D02*
D03*
X508000Y165100D02*
D03*
X584200Y-177800D02*
D03*
X482600Y165100D02*
D03*
X609600Y-177800D02*
D03*
X457200Y165100D02*
D03*
X635000Y-177800D02*
D03*
X368300Y-114300D02*
D03*
X330200D02*
D03*
X292100D02*
D03*
X254000D02*
D03*
X368300Y-177800D02*
D03*
X330200D02*
D03*
X292100D02*
D03*
X254000D02*
D03*
D19*
X577444Y-114300D02*
D03*
X584200D02*
D03*
D20*
D03*
X577444D02*
D03*
D21*
X567000Y127000D02*
D03*
X576000D02*
D03*
X643200D02*
D03*
X652200D02*
D03*
D22*
X577000Y-136000D02*
D03*
X560000D02*
D03*
D23*
X457200Y-241300D02*
D03*
X416560Y241300D02*
D03*
X635000D02*
D03*
Y-241300D02*
D03*
D24*
X381000D02*
D03*
X355600D02*
D03*
X330200D02*
D03*
X304800D02*
D03*
X279400D02*
D03*
X431800D02*
D03*
X406400D02*
D03*
X187960Y241300D02*
D03*
X213360D02*
D03*
X238760D02*
D03*
X264160D02*
D03*
X289560D02*
D03*
X314960D02*
D03*
X340360D02*
D03*
X365760D02*
D03*
X391160D02*
D03*
X558800D02*
D03*
X533400D02*
D03*
X508000D02*
D03*
X482600D02*
D03*
X457200D02*
D03*
X609600D02*
D03*
X584200D02*
D03*
X508000Y-241300D02*
D03*
X533400D02*
D03*
X558800D02*
D03*
X584200D02*
D03*
X609600D02*
D03*
D25*
X901000Y54000D02*
D03*
X864000Y53000D02*
D03*
X798000D02*
D03*
X767000D02*
D03*
X734000D02*
D03*
X712000Y-67000D02*
D03*
X602000Y81000D02*
D03*
X735000Y70000D02*
D03*
X657779Y-1221D02*
D03*
M02*
