G04*
G04 #@! TF.GenerationSoftware,Altium Limited,Altium Designer,21.7.2 (23)*
G04*
G04 Layer_Color=16711935*
%FSLAX44Y44*%
%MOMM*%
G71*
G04*
G04 #@! TF.SameCoordinates,4DA13975-460D-43A1-ABA8-CDB05979C8EE*
G04*
G04*
G04 #@! TF.FilePolarity,Negative*
G04*
G01*
G75*
%ADD13C,1.0000*%
%ADD23R,1.6240X1.6240*%
%ADD24C,1.6240*%
%ADD25C,0.7000*%
G04:AMPARAMS|DCode=43|XSize=0.85mm|YSize=1.9mm|CornerRadius=0.1438mm|HoleSize=0mm|Usage=FLASHONLY|Rotation=0.000|XOffset=0mm|YOffset=0mm|HoleType=Round|Shape=RoundedRectangle|*
%AMROUNDEDRECTD43*
21,1,0.8500,1.6125,0,0,0.0*
21,1,0.5625,1.9000,0,0,0.0*
1,1,0.2875,0.2813,-0.8063*
1,1,0.2875,-0.2813,-0.8063*
1,1,0.2875,-0.2813,0.8063*
1,1,0.2875,0.2813,0.8063*
%
%ADD43ROUNDEDRECTD43*%
D13*
X686000Y-400000D02*
Y-266000D01*
Y-400000D02*
X1085800D01*
X685800Y267000D02*
Y400000D01*
X0Y-266000D02*
X686000D01*
X1085800Y-400000D02*
X1085800Y400000D01*
X685800D02*
X1085800D01*
X0Y267000D02*
X685800D01*
X0Y-266000D02*
Y267000D01*
D23*
X457200Y-241300D02*
D03*
X416560Y241300D02*
D03*
X635000D02*
D03*
Y-241300D02*
D03*
D24*
X381000D02*
D03*
X355600D02*
D03*
X330200D02*
D03*
X304800D02*
D03*
X279400D02*
D03*
X431800D02*
D03*
X406400D02*
D03*
X187960Y241300D02*
D03*
X213360D02*
D03*
X238760D02*
D03*
X264160D02*
D03*
X289560D02*
D03*
X314960D02*
D03*
X340360D02*
D03*
X365760D02*
D03*
X391160D02*
D03*
X558800D02*
D03*
X533400D02*
D03*
X508000D02*
D03*
X482600D02*
D03*
X457200D02*
D03*
X609600D02*
D03*
X584200D02*
D03*
X508000Y-241300D02*
D03*
X533400D02*
D03*
X558800D02*
D03*
X584200D02*
D03*
X609600D02*
D03*
D25*
X901000Y54000D02*
D03*
X864000Y53000D02*
D03*
X798000D02*
D03*
X767000D02*
D03*
X734000D02*
D03*
X712000Y-67000D02*
D03*
X602000Y81000D02*
D03*
X735000Y70000D02*
D03*
X657779Y-1221D02*
D03*
D43*
X1040000Y-46500D02*
D03*
X1029000D02*
D03*
X1018000D02*
D03*
X1007000D02*
D03*
X996000D02*
D03*
X985000D02*
D03*
X974000D02*
D03*
X963000D02*
D03*
X952000D02*
D03*
Y46500D02*
D03*
X963000D02*
D03*
X974000D02*
D03*
X985000D02*
D03*
X996000D02*
D03*
X1007000D02*
D03*
X1018000D02*
D03*
X1029000D02*
D03*
X1040000D02*
D03*
M02*
