M48
;Layer_Color=9474304
;FILE_FORMAT=4:4
METRIC,TZ
;TYPE=PLATED
T1F00S00C0.3000
T2F00S00C0.7620
%
T01
X711200Y-355600
X762000
X812800
X863600
Y-304800
X812800
X762000
X711200
Y-254000
X762000
X812800
X863600
Y-203200
X812800
X762000
X711200
X914400
Y-254000
Y-304800
Y-355600
X965200
X1016000
X1066800
Y-304800
X1016000
X965200
Y-254000
X1016000
X1066800
Y-203200
X1016000
X965200
Y-152400
X914400
X1016000
X1066800
X1040143Y-56573
X1030944Y-57181
X1016562Y-56874
X995125Y-56838
X983776Y-57401
X973644
X961613Y-56666
X950409Y-56544
X945329Y-19731
X968000Y-24000
Y-13000
Y-3000
X963998Y9000
X964107Y30107
X952598Y31023
X944334Y20411
X946341Y54592
X974415Y56509
X993000Y30000
Y20000
X1005000
Y30000
X1017000
Y20000
X1028000
Y30000
Y8000
X1017000
X1028000Y-6000
X1006000Y-19000
X997000Y-29000
X992000Y-14000
X980000Y-13000
Y-24000
X1042674Y-45313
X1066800Y101600
X1016000
X965200
X914400
Y152400
X965200
X1016000
X1066800
Y203200
X1016000
X965200
X914400
X901000Y54000
X864000Y53000
X863600Y101600
X812800
X762000
X711200
Y152400
X762000
X812800
X863600
Y203200
X812800
X762000
X711200
X735000Y70000
X734000Y53000
X767000
X798000
X657779Y-1221
X712000Y-67000
X711200Y-152400
X762000
X812800
X863600
X602000Y81000
X711200Y254000
X762000
X812800
X863600
Y304800
X812800
X762000
X711200
Y355600
X762000
X812800
X863600
X914400
Y304800
Y254000
X965200
X1016000
X1066800
Y304800
X1016000
X965200
Y355600
X1016000
X1066800
T02
X279400Y-241300
X304800
X330200
X355600
X381000
X406400
X431800
X457200
X508000
X533400
X558800
X584200
X609600
X635000
X482600Y241300
X457200
X416560
X391160
X365760
X340360
X314960
X289560
X264160
X238760
X213360
X187960
X508000
X533400
X558800
X584200
X609600
X635000
M30
